ply
format ascii 1.0
element vertex 200
property float x
property float y
property float z
property uchar blue
property uchar green
property uchar red
end_header
-1.60037 3.14729 3.85261 0 0 0
-1.62434 3.35882 3.68797 0 0 0
-1.58836 3.34035 3.65277 0 0 0
-1.37682 3.39417 3.78941 0 0 0
-1.62195 3.35714 3.68464 0 0 0
-1.39491 3.1089 3.80105 0 0 0
-1.83257 3.50578 3.98934 0 0 0
-1.71421 3.25949 4.06144 0 0 0
-1.49514 3.39884 3.76527 0 0 0
-1.38771 3.40401 3.80819 0 0 0
-1.57212 3.46846 3.97511 0 0 0
-1.37086 3.40548 3.81999 0 0 0
-1.50351 3.99821 3.8789 0 0 0
-1.43059 3.41734 3.82517 0 0 0
-1.35421 3.23954 3.82018 0 0 0
-1.40603 3.31705 3.63521 0 0 0
-1.56363 3.48117 4.05111 0 0 0
-1.06317 3.30505 3.86964 0 0 0
-1.41887 3.3379 3.665 0 0 0
-1.71533 3.21333 4.06754 0 0 0
-1.33958 3.31895 3.6609 0 0 0
-1.3004 3.33164 3.70075 0 0 0
-1.40834 3.88681 3.48783 0 0 0
-1.6345 3.48202 4.26291 0 0 0
-1.23799 3.16798 3.8353 0 0 0
-1.5728 3.4517 3.90613 0 0 0
-1.02016 3.69689 3.54564 0 0 0
-1.05291 3.33908 4.01141 0 0 0
-1.358 3.37785 3.76162 0 0 0
-1.82146 3.41438 4.01307 0 0 0
-1.15775 3.30633 3.75717 0 0 0
-1.32757 3.14184 3.81594 0 0 0
-1.10058 3.30107 3.80783 0 0 0
-1.10265 3.28052 3.76327 0 0 0
-1.69146 3.47651 4.09947 0 0 0
-1.59042 3.15348 3.85388 0 0 0
-1.5229 3.15996 3.87861 0 0 0
-1.44546 3.26496 3.71554 0 0 0
-1.6348 3.48151 4.26836 0 0 0
-1.33416 3.71876 3.52068 0 0 0
-0.982407 3.70846 3.66845 0 0 0
-1.11087 3.32413 3.84918 0 0 0
-1.45638 3.45793 3.94834 0 0 0
-1.3548 3.44714 3.96953 0 0 0
-1.00055 3.75341 3.64 0 0 0
-1.6341 3.29726 3.59297 0 0 0
-1.17761 3.4132 4.24675 0 0 0
-1.04787 3.26801 3.805 0 0 0
-1.64795 3.28799 3.58238 0 0 0
-1.27612 3.37226 3.79788 0 0 0
-1.97955 3.94857 3.94665 0 0 0
-1.67317 3.47531 4.06236 0 0 0
-1.60661 3.48753 4.19335 0 0 0
-0.979721 3.64194 3.64926 0 0 0
-1.51118 3.45344 3.91504 0 0 0
-2.14647 3.26516 3.74962 0 0 0
-1.4246 3.45591 3.95561 0 0 0
-1.66856 3.47037 4.02208 0 0 0
-2.10774 3.31621 4.26799 0 0 0
-1.1082 3.37494 4.04506 0 0 0
-1.10637 3.36591 3.99879 0 0 0
-1.76941 3.46491 4.20889 0 0 0
-1.81461 3.42696 3.94812 0 0 0
-1.3285 3.44244 3.97477 0 0 0
-1.2519 3.42167 3.97759 0 0 0
-1.1207 3.3522 3.91561 0 0 0
-1.44659 3.41859 3.82326 0 0 0
-1.5747 3.45105 3.90398 0 0 0
-2.0164 3.13779 4.10952 0 0 0
-1.75371 3.74771 3.95847 0 0 0
-2.02585 3.33539 3.93057 0 0 0
-1.51202 3.47664 4.02447 0 0 0
-2.08079 3.33072 4.29186 0 0 0
-1.98246 3.31691 3.81514 0 0 0
-1.49599 3.48531 4.24187 0 0 0
-1.60105 3.16495 3.62138 0 0 0
-1.82299 3.42737 3.95985 0 0 0
-1.10283 3.3757 4.28161 0 0 0
-1.97443 3.39189 4.26327 0 0 0
-1.61615 3.45559 3.9275 0 0 0
-1.60756 3.47711 4.03186 0 0 0
-1.45715 3.47209 4.33287 0 0 0
-1.63483 3.47993 4.06871 0 0 0
-1.63772 3.41017 3.79623 0 0 0
-2.0787 3.30198 3.92516 0 0 0
-1.59811 3.28259 3.56942 0 0 0
-1.07592 3.50122 3.86114 0 0 0
-1.67683 3.48137 4.16552 0 0 0
-1.99121 3.38436 4.25802 0 0 0
-1.80611 3.24935 3.57796 0 0 0
-1.74655 3.36363 3.73158 0 0 0
-2.02461 3.37085 4.19372 0 0 0
-1.23264 3.27433 3.64661 0 0 0
-1.96454 3.39072 4.31014 0 0 0
-2.02937 3.53804 4.07182 0 0 0
-1.99633 3.38258 4.10318 0 0 0
-2.14981 3.7928 3.92429 0 0 0
-1.18308 3.38254 3.92188 0 0 0
-1.99858 3.33776 3.89099 0 0 0
-2.06427 3.34454 4.26029 0 0 0
-2.00449 3.36633 4.01255 0 0 0
-1.18607 3.40224 3.99923 0 0 0
-1.15262 3.38427 3.98096 0 0 0
-2.0678 3.54383 3.42694 0 0 0
-1.80408 3.44304 4.27763 0 0 0
-1.98002 3.26733 3.7157 0 0 0
-1.87543 3.34902 3.78049 0 0 0
-1.14965 3.37385 3.94324 0 0 0
-1.89449 3.20406 4.20542 0 0 0
-1.78973 3.2273 3.54459 0 0 0
-1.8276 3.18828 3.72487 0 0 0
-1.66464 3.43281 3.86493 0 0 0
-1.89549 3.07307 3.63202 0 0 0
-2.05247 3.14152 3.60618 0 0 0
-2.07076 3.23352 3.75446 0 0 0
-1.84157 3.43483 4.3262 0 0 0
-1.914 3.38391 3.91338 0 0 0
-2.11314 3.30487 4.03139 0 0 0
-1.94215 3.23817 3.69714 0 0 0
-1.70041 3.47367 4.27101 0 0 0
-1.51797 3.47736 4.325 0 0 0
-1.31353 3.41728 4.30118 0 0 0
-1.80363 3.44677 4.31831 0 0 0
-2.07965 3.29466 3.90443 0 0 0
-1.24246 3.6262 4.28918 0 0 0
-2.11366 3.29836 4.00027 0 0 0
-2.10049 3.32126 4.08689 0 0 0
-1.7895 3.8078 4.06201 0 0 0
-1.91471 3.20352 3.57725 0 0 0
-2.02186 3.37235 4.16092 0 0 0
-2.02952 3.35786 4.31195 0 0 0
-2.02132 3.36737 4.27393 0 0 0
-1.5902 3.57757 3.28717 0 0 0
-1.26537 3.36821 3.79649 0 0 0
-1.12745 3.37038 3.97126 0 0 0
-1.17341 3.4098 4.08665 0 0 0
-1.74053 3.45695 4.34418 0 0 0
-1.87839 3.43108 4.25961 0 0 0
-2.05245 3.13544 3.59928 0 0 0
-1.93489 3.3138 3.75899 0 0 0
-1.86529 3.22568 3.5763 0 0 0
-1.15087 3.39234 4.02718 0 0 0
-2.07413 3.25343 4.19344 0 0 0
-1.90339 3.38106 3.89037 0 0 0
-2.27586 3.54619 3.62765 0 0 0
-2.10515 3.32288 4.16309 0 0 0
-2.04282 3.36014 4.13666 0 0 0
-2.02353 3.29246 3.81109 0 0 0
-1.89005 3.419 4.32413 0 0 0
-1.58428 3.48424 4.26978 0 0 0
-1.66229 3.4815 4.2333 0 0 0
-1.09882 3.22163 3.66948 0 0 0
-2.18098 3.34837 3.88083 0 0 0
-1.34593 3.17979 3.64653 0 0 0
-2.0915 3.24524 3.69225 0 0 0
-1.57555 3.48314 4.28299 0 0 0
-1.83524 3.09086 3.77817 0 0 0
-1.91398 3.21574 3.80077 0 0 0
-1.54634 3.34077 3.65233 0 0 0
-1.2477 3.43652 4.27143 0 0 0
-1.91904 3.29602 3.7126 0 0 0
-1.40364 3.92463 4.32266 0 0 0
-1.96632 3.39322 4.06722 0 0 0
-1.96394 3.34347 3.85799 0 0 0
-1.8168 3.12353 3.79909 0 0 0
-1.24039 3.35107 3.77744 0 0 0
-2.03849 3.25595 3.7563 0 0 0
-2.03133 3.15003 3.59792 0 0 0
-2.08496 3.31456 3.98695 0 0 0
-1.20722 3.42164 4.07317 0 0 0
-2.10818 3.31412 4.28295 0 0 0
-1.25804 3.43871 4.07096 0 0 0
-1.97897 3.35608 3.91736 0 0 0
-1.24196 3.42908 4.03651 0 0 0
-1.1023 3.37962 4.23661 0 0 0
-1.97564 3.20482 3.58201 0 0 0
-1.93882 3.19765 3.58537 0 0 0
-2.03071 3.34792 3.99076 0 0 0
-1.87413 3.15342 4.06103 0 0 0
-1.37061 3.97728 4.36214 0 0 0
-1.4247 3.28395 3.58332 0 0 0
-1.97069 3.21479 3.62946 0 0 0
-1.73488 3.36608 3.7315 0 0 0
-1.8011 3.45518 4.2487 0 0 0
-1.68607 3.38553 3.75355 0 0 0
-1.20059 3.41747 4.05898 0 0 0
-1.7182 3.46649 4.30861 0 0 0
-1.26474 3.43093 4.34877 0 0 0
-1.97848 3.03843 3.83754 0 0 0
-1.92225 3.4181 4.20435 0 0 0
-2.05569 3.31143 3.90934 0 0 0
-2.08241 3.27459 3.85549 0 0 0
-2.00217 3.45785 4.15591 0 0 0
-1.95886 3.32318 3.8025 0 0 0
-1.88148 3.3678 3.82977 0 0 0
-1.69915 3.3215 3.64175 0 0 0
-1.95412 3.0301 3.77902 0 0 0
-2.11654 3.24839 3.85056 0 0 0
-1.19171 3.59738 3.40053 0 0 0
-1.98913 3.37863 4.31316 0 0 0
